<svg width="110.9" height="73.401" viewBox="-2 -2 114 99" xmlns="http://www.w3.org/2000/svg"><g id="svgGroup" stroke-linecap="round" fill-rule="evenodd" font-size="9pt" stroke="#000000" stroke-width="0.25mm" fill="#000000" style="stroke:#000000;stroke-width:0.25mm;fill:#000000" transform="scale(1,1.3)"><path d="M 88.3 72.4 L 78.9 72.4 L 55.9 1 L 65.3 1 L 79.2 47.4 Q 80.1 50.3 80.85 53.15 Q 81.6 56 82.3 58.65 Q 83 61.3 83.5 63.7 L 83.8 63.7 Q 84.3 61.3 84.95 58.65 Q 85.6 56 86.35 53.05 Q 87.1 50.1 88 47.1 L 101.4 1 L 110.9 1 L 88.3 72.4 Z M 48.4 4.2 L 45 11.5 Q 41.9 9.8 37.95 8.9 Q 34 8 30.3 8 Q 25.2 8 21.25 9.9 Q 17.3 11.8 14.65 15.45 Q 12 19.1 10.6 24.45 Q 9.2 29.8 9.2 36.7 Q 9.2 45.5 11.35 51.9 Q 13.5 58.3 18.1 61.7 Q 22.7 65.1 30.1 65.1 Q 33.5 65.1 37.45 64.35 Q 41.4 63.6 45.3 62 L 45.3 70.5 Q 41.3 72 37.65 72.7 Q 34 73.4 29.9 73.4 Q 19.4 73.4 12.8 68.7 Q 6.2 64 3.1 55.75 Q 0 47.5 0 36.7 Q 0 28.2 2 21.45 Q 4 14.7 7.9 9.9 Q 11.8 5.1 17.4 2.55 Q 23 0 30.3 0 Q 35.5 0 40.05 1.1 Q 44.6 2.2 48.4 4.2 Z" vector-effect="non-scaling-stroke"/></g></svg>