<svg width="180" height="180" viewBox="-5 -10 191.001 100.401"
    xmlns="http://www.w3.org/2000/svg">
    <g id="svgGroup" stroke-linecap="round" fill-rule="evenodd" font-size="9pt" stroke="#000"
        stroke-width="mm" fill="#000" style="stroke:#000;stroke-width:mm;fill:#000">
        <path
            d="M 129.6 46.901 L 131 43.701 Q 124.7 42.401 119.2 38.701 Q 109.9 32.401 109.9 23.101 Q 109.9 18.901 112.05 16.101 Q 114.2 13.301 117.8 13.301 Q 120.3 13.301 122.3 14.801 Q 124.3 16.301 124.3 18.701 L 124.3 19.001 Q 124.3 20.501 122.9 20.501 Q 120.9 20.501 120.8 18.501 Q 120 17.101 117.9 17.101 Q 117.5 17.101 117.2 17.151 Q 116.9 17.201 116.5 17.301 Q 111.4 18.301 111.4 23.201 Q 111.4 31.701 119.7 37.601 Q 124.8 41.301 131.6 42.101 Q 143.7 13.001 154.2 4.701 Q 160.1 0.001 165.7 0.001 Q 170.7 0.001 173.9 3.751 Q 177.1 7.501 177.1 13.101 Q 177.1 21.201 171 28.301 Q 158.9 42.701 140.9 44.201 L 138.8 49.601 Q 139.3 49.801 140.35 50.201 Q 141.4 50.601 141.5 51.101 Q 141.6 51.401 136.9 55.201 L 136.8 55.101 Q 136.4 56.201 136.05 57.401 Q 135.7 58.601 135.3 59.701 Q 142.5 65.501 148.2 69.351 Q 153.9 73.201 158.1 75.301 Q 161.6 76.901 165.8 76.901 Q 168.6 76.901 171 76.251 Q 173.4 75.601 175.5 74.201 Q 179.7 71.501 179.7 67.201 Q 179.7 66.701 179.5 65.751 Q 179.3 64.801 179.3 64.301 Q 179.3 63.501 179.8 63.501 Q 181 63.501 181 67.801 Q 181 72.901 176.4 76.201 Q 171.8 79.501 164.9 79.501 Q 158.5 79.501 152.6 76.401 Q 150 75.101 145.35 72.051 Q 140.7 69.001 133.9 64.201 Q 132.3 69.501 131.3 74.151 Q 130.3 78.801 129.8 82.901 Q 129.6 83.701 129.3 83.701 Q 129 83.701 128.9 83.001 Q 128.9 82.601 129.05 81.651 Q 129.2 80.701 129.4 79.301 Q 129.9 75.501 130.8 71.551 Q 131.7 67.601 132.8 63.401 Q 131.4 62.301 130.15 61.401 Q 128.9 60.501 127.8 59.801 Q 119 74.301 106.8 74.301 Q 104.8 74.301 102.75 73.951 Q 100.7 73.601 98.4 72.901 Q 96.7 72.301 96.7 71.701 Q 96.7 71.401 97.3 71.401 Q 97.6 71.401 98.4 71.601 Q 102.3 72.801 105.9 72.801 Q 117.4 72.801 124.9 57.701 Q 115.4 51.201 108 47.601 Q 102 44.701 95.6 44.701 Q 82 44.701 78.5 54.701 Q 77.8 56.701 77.8 58.801 Q 77.8 64.601 82.6 69.901 Q 87 74.701 91.4 75.601 Q 92.5 75.801 92.5 76.301 Q 92.5 77.001 91.2 77.001 L 90.65 77.001 Q 90.3 77.001 89.9 76.901 Q 84.9 76.001 80.7 71.801 Q 76.1 66.901 76.1 60.501 Q 76.1 57.301 77.3 53.901 Q 79.7 47.401 85.6 43.901 Q 91.2 40.401 98.4 40.401 Q 104.1 40.401 109.6 42.701 Q 117.3 45.801 127 53.101 Q 127.5 52.101 128.1 50.551 Q 128.7 49.001 129.6 46.901 Z M 32.7 84.401 Q 23.9 84.401 15.6 79.301 Q 8.4 74.701 4.4 68.301 Q 0 61.001 0 58.301 Q 0 56.301 1.7 56.301 Q 2.4 56.301 2.8 57.001 Q 6 64.501 11 68.901 Q 17.8 75.201 26.2 75.201 Q 29.1 75.201 31.2 74.001 Q 31.7 73.601 31.9 74.101 Q 32 74.501 31.5 74.901 Q 28.9 76.301 25 76.301 Q 23.3 76.301 21 76.001 Q 12.3 74.701 7.2 67.601 Q 18 82.801 31.3 82.801 Q 44 82.801 57.1 68.201 Q 62.9 61.701 74.4 37.301 Q 85.8 13.101 91 7.101 Q 96.1 1.101 101.5 1.101 Q 104.5 1.101 106.3 3.601 Q 106.7 4.101 106.7 4.701 Q 106.7 6.401 105.4 6.401 Q 104.9 6.401 104.6 5.701 Q 103.2 2.901 101.1 2.901 Q 97.2 2.901 93.2 9.401 Q 92.6 10.401 88.95 17.701 Q 85.3 25.001 78.6 38.901 Q 67.4 61.901 59.8 70.401 Q 47.3 84.401 32.7 84.401 Z M 56.8 56.301 L 54 54.901 Q 53.5 54.301 53.1 53.101 Q 52.7 51.901 52.7 51.101 L 52.9 50.701 Q 53 50.501 53.1 50.401 Q 55.4 51.501 58.4 53.901 L 58.8 56.901 Q 59 55.701 59.1 54.351 Q 59.2 53.001 59.2 51.701 Q 59.2 42.001 53.9 32.601 Q 48.8 23.701 40.6 17.801 Q 31.5 20.001 28.4 27.501 Q 28.6 28.301 28.9 29.251 Q 29.2 30.201 29.4 31.301 Q 29.5 35.701 26.8 46.701 Q 26 47.201 25.6 47.201 Q 23.8 47.201 22.9 43.501 L 25.3 37.101 Q 26.9 32.701 26.9 28.501 Q 26.9 25.901 26.3 23.501 L 26.4 23.501 Q 26.9 23.501 27.8 25.801 Q 31 19.201 37.1 15.601 Q 33 13.201 29.1 12.401 Q 25.2 11.601 21.4 11.601 L 21 11.601 Q 19.6 11.601 19.6 10.701 Q 19.6 9.501 21.4 9.401 Q 21.9 9.301 22.4 9.301 L 23.3 9.301 Q 31 9.301 39.1 14.501 Q 41.3 13.501 43 13.401 Q 43.5 13.301 43.95 13.301 L 44.8 13.301 Q 51.5 13.301 56.7 18.201 Q 65.9 27.001 66.7 50.801 Q 66.7 51.301 65.3 52.001 Q 63.9 52.701 63.1 52.701 Q 62.8 52.701 62.8 52.501 Q 62.5 33.501 54.9 23.901 Q 52.1 20.401 49.15 18.901 Q 46.2 17.401 43.2 17.401 L 43 17.401 Q 46.8 20.501 49.9 24.401 Q 53 28.301 55.3 32.701 Q 60.2 41.901 60.2 51.001 Q 60.2 55.401 58.8 59.801 Q 58.5 57.701 56.8 56.301 Z M 136 42.301 L 138.2 42.101 Q 139.3 42.001 140.3 41.901 Q 142.3 37.301 144.55 32.401 Q 146.8 27.501 149.3 22.501 Q 157.5 6.801 160.5 6.601 Q 161.2 6.601 161.2 7.301 Q 161.2 7.701 160.8 8.001 Q 157.4 10.701 152.65 19.101 Q 147.9 27.501 142 41.601 Q 158.5 38.301 168.7 25.501 Q 174.4 18.401 174.4 11.501 Q 174.4 7.101 172.15 4.301 Q 169.9 1.501 166.1 1.501 Q 161.2 1.501 155.5 6.451 Q 149.8 11.401 144.5 22.101 Q 143.5 24.201 141.35 29.251 Q 139.2 34.301 136 42.301 Z M 134.2 58.801 L 135.7 54.201 Q 135.1 53.601 134.9 53.001 Q 134.7 52.401 134.6 52.001 Q 134.6 51.201 135.55 49.551 Q 136.5 47.901 137.8 47.901 L 137.9 47.901 Q 138.3 47.101 138.65 46.151 Q 139 45.201 139.4 44.201 Q 137.2 44.301 135.2 44.201 Q 133.8 47.601 132.5 50.451 Q 131.2 53.301 130.1 55.601 Q 130.9 56.101 131.9 56.901 Q 132.9 57.701 134.2 58.801 Z"
            vector-effect="non-scaling-stroke" />
    </g>
</svg>