<svg class="signature-asset" width="642" height="309" viewBox="0 0 642 309" fill="none" xmlns="http://www.w3.org/2000/svg">
  <style>
    .signature-asset path { stroke: black; stroke-width: 5; stroke-linecap: round; fill: none; }
    @media (prefers-color-scheme: dark) { .signature-asset path { stroke: #e0e0e0; } }
  </style>

  <!-- 1. 左边主体 (耗时 30%) -->
  <!-- 时间: 0 -> 0.30 -->
  <path d="M104.345 120.5C89.3452 104.5 136.648 68.7635 149.345 67C163.745 65 146.012 88.5 136.845 100C125.345 115.5 106.245 147.1 121.845 149.5C137.445 151.9 211.345 75 204.345 70.5C200.795 68.218 182.732 122.528 159.345 168.5C136.615 213.18 119.345 242.631 91.8452 250C64.3453 257.369 68.3452 202.5 138.345 160C183.345 135.5 197.845 137 198.845 135.5C199.845 134 200.845 133 200.845 132C200.845 131 184.345 158.5 194.345 158.5C204.345 158.5 218.345 134.5 216.845 134C215.345 133.5 203.845 158.5 213.345 158.5C222.845 158.5 271.345 94 261.345 94.5C251.345 95 217.845 161.5 232.345 161.5C243.945 161.5 265.345 135.5 263.345 135.5C261.345 135.5 248.845 160 258.845 160C271.345 160 279.345 132 272.845 131.5C266.345 131 263.845 144.5 271.345 144.5C278.845 144.5 290.345 142.5 292.845 131.5C294.845 122.7 284.268 159.5 280.268 159.5C276.268 159.5 300.745 132.5 306.345 132.5C313.345 132.5 296.845 156.5 305.345 156.5C313.845 156.5 326.845 133.486 332.845 131.878C338.845 130.271 340.345 131.5 340.845 137C341.245 141.4 341.809 133.5 338.345 131.5C334.881 129.5 326.863 134.2 322.345 141C316.698 149.5 316.345 159 321.345 159C326.345 159 348.345 133 345.345 131.5C342.345 130 316.345 213.5 293.845 213.5C271.345 213.5 308.345 178 323.345 169C335.345 161.8 351.345 146 357.845 139" 
    stroke-dasharray="2200" stroke-dashoffset="2200">
    <animate 
      attributeName="stroke-dashoffset" 
      dur="6s" 
      repeatCount="indefinite" 
      values="2800; 0; 0; 2800; 2800" 
      keyTimes="0; 0.30; 0.9; 0.95; 1" />
  </path>

  <!-- 2. 左边横杠 (耗时 3%) -->
  <!-- 时间: 0.30 -> 0.33 (紧接上一个) -->
  <path d="M228.345 124C235.512 123.333 252.145 122 261.345 122" 
    stroke-dasharray="100" stroke-dashoffset="100">
    <animate 
      attributeName="stroke-dashoffset" 
      dur="6s" 
      repeatCount="indefinite" 
      values="100; 100; 0; 0; 100; 100" 
      keyTimes="0; 0.30; 0.33; 0.9; 0.95; 1" />
  </path>

  <!-- 3. 右边主体 (耗时 15%) -->
  <!-- 时间: 0.33 -> 0.48 (紧接上一个) -->
  <path d="M375.345 127C386.678 125.833 414.445 119.9 434.845 105.5C460.345 87.5 476.345 59 463.345 59C450.345 59 370.845 202.5 351.845 202.5C332.845 202.5 368.845 175 438.345 175C507.845 175 487.845 184.5 487.845 184" 
    stroke-dasharray="1000" stroke-dashoffset="1000">
    <animate 
      attributeName="stroke-dashoffset" 
      dur="6s" 
      repeatCount="indefinite" 
      values="1000; 1000; 0; 0; 1000; 1000" 
      keyTimes="0; 0.33; 0.48; 0.9; 0.95; 1" />
  </path>

  <!-- 4. 右边点 (原最后元素，现调至此处) (耗时 3%) -->
  <!-- 时间: 0.48 -> 0.51 (紧接上一个) -->
  <path d="M450.345 120L447.845 122" 
    stroke-dasharray="50" stroke-dashoffset="50">
    <animate 
      attributeName="stroke-dashoffset" 
      dur="6s" 
      repeatCount="indefinite" 
      values="50; 50; 0; 0; 50; 50" 
      keyTimes="0; 0.48; 0.51; 0.9; 0.95; 1" />
  </path>

  <!-- 5. 右边连笔 (原第四元素，现调至最后) (耗时 34%) -->
  <!-- 时间: 0.51 -> 0.85 (紧接上一个) -->
  <path d="M442.845 132.5C437.178 141.5 427.945 159.4 436.345 159C446.845 158.5 460.345 132.5 470.345 132.5C478.345 132.5 473.678 142.833 470.345 148C474.178 142.667 479.245 132 468.845 132C455.845 132 441.845 171 462.845 154.5C483.845 138 482.345 122 472.845 146C463.345 170 496.563 148.611 498.845 131.5C499.845 124 490.345 158.5 486.845 158.5C483.345 158.5 502.845 132 512.345 132.5C521.845 133 501.845 157 511.345 157C520.845 157 531.845 132 541.845 132C549.845 132 545.512 141.333 542.345 146C543.678 145.833 546.545 144 547.345 138C548.345 130.5 535.345 128 527.345 146C519.345 164 527.345 161.5 539.345 149.5C551.345 137.5 552.345 130.5 551.345 130.5C550.345 130.5 538.845 165 522.345 191.5C509.145 212.7 501.178 215 498.845 213.5C492.512 210.5 490.509 197.837 530.845 168C540.951 160.524 554.99 142.737 566.845 139" 
    stroke-dasharray="2000" stroke-dashoffset="2000">
    <animate 
      attributeName="stroke-dashoffset" 
      dur="6s" 
      repeatCount="indefinite" 
      values="2000; 2000; 0; 0; 2000; 2000" 
      keyTimes="0; 0.51; 0.85; 0.9; 0.95; 1" />
  </path>
</svg>
